<svg width="316" height="81" viewBox="0 0 316 81" fill="none" xmlns="http://www.w3.org/2000/svg">
<path d="M82.2825 48.1572V24.8845H91.6007C93.3128 24.8845 94.7408 25.1383 95.8848 25.6459C97.0287 26.1534 97.8886 26.858 98.4643 27.7595C99.0401 28.6534 99.3279 29.6837 99.3279 30.8504C99.3279 31.7595 99.1461 32.5587 98.7825 33.2481C98.4189 33.93 97.9189 34.4906 97.2825 34.93C96.6537 35.3618 95.934 35.6686 95.1234 35.8504V36.0777C96.0098 36.1156 96.8393 36.3656 97.612 36.8277C98.3923 37.2898 99.0249 37.9375 99.5098 38.7709C99.9946 39.5966 100.237 40.5815 100.237 41.7254C100.237 42.9603 99.9302 44.0625 99.3166 45.0322C98.7105 45.9943 97.8128 46.7557 96.6234 47.3163C95.434 47.8769 93.9681 48.1572 92.2257 48.1572H82.2825ZM87.2029 44.1345H91.2143C92.5855 44.1345 93.5855 43.8731 94.2143 43.3504C94.8431 42.8201 95.1575 42.1156 95.1575 41.2368C95.1575 40.5928 95.0022 40.0247 94.6916 39.5322C94.381 39.0398 93.9378 38.6534 93.362 38.3731C92.7939 38.0928 92.1158 37.9527 91.3279 37.9527H87.2029V44.1345ZM87.2029 34.6231H90.8507C91.5249 34.6231 92.1234 34.5057 92.6461 34.2709C93.1764 34.0284 93.5931 33.6875 93.8961 33.2481C94.2067 32.8087 94.362 32.2822 94.362 31.6686C94.362 30.8277 94.0628 30.1497 93.4643 29.6345C92.8734 29.1193 92.0325 28.8618 90.9416 28.8618H87.2029V34.6231ZM109.839 48.1572V24.8845H114.759V44.1004H124.736V48.1572H109.839ZM148.77 24.8845H153.69V39.9981C153.69 41.6951 153.285 43.18 152.475 44.4527C151.672 45.7254 150.547 46.7178 149.1 47.43C147.653 48.1345 145.967 48.4868 144.043 48.4868C142.111 48.4868 140.422 48.1345 138.975 47.43C137.528 46.7178 136.403 45.7254 135.6 44.4527C134.797 43.18 134.395 41.6951 134.395 39.9981V24.8845H139.315V39.5777C139.315 40.464 139.509 41.2519 139.895 41.9413C140.289 42.6307 140.842 43.1724 141.554 43.5663C142.266 43.9603 143.096 44.1572 144.043 44.1572C144.997 44.1572 145.827 43.9603 146.531 43.5663C147.243 43.1724 147.793 42.6307 148.179 41.9413C148.573 41.2519 148.77 40.464 148.77 39.5777V24.8845ZM164.139 48.1572V24.8845H179.821V28.9413H169.059V34.4868H179.014V38.5436H169.059V44.1004H179.866V48.1572H164.139ZM190.132 48.1572V24.8845H195.053V44.1004H205.03V48.1572H190.132ZM219.609 24.8845V48.1572H214.689V24.8845H219.609ZM249.523 24.8845V48.1572H245.273L235.148 33.5095H234.978V48.1572H230.057V24.8845H234.376L244.421 39.5209H244.626V24.8845H249.523ZM259.989 48.1572V24.8845H275.671V28.9413H264.909V34.4868H274.864V38.5436H264.909V44.1004H275.716V48.1572H259.989ZM285.982 48.1572V24.8845H295.164C296.922 24.8845 298.422 25.1989 299.664 25.8277C300.914 26.4489 301.865 27.3315 302.517 28.4754C303.176 29.6118 303.505 30.9489 303.505 32.4868C303.505 34.0322 303.172 35.3618 302.505 36.4754C301.839 37.5815 300.873 38.43 299.607 39.0209C298.35 39.6118 296.827 39.9072 295.039 39.9072H288.892V35.9527H294.244C295.183 35.9527 295.964 35.8239 296.585 35.5663C297.206 35.3087 297.668 34.9224 297.971 34.4072C298.282 33.8921 298.437 33.2519 298.437 32.4868C298.437 31.714 298.282 31.0625 297.971 30.5322C297.668 30.0019 297.202 29.6004 296.573 29.3277C295.952 29.0474 295.168 28.9072 294.221 28.9072H290.903V48.1572H285.982ZM298.551 37.5663L304.335 48.1572H298.903L293.244 37.5663H298.551Z" fill="url(#paint0_linear_11598_20496)"/>
<path d="M80.1896 59.9047C80.1499 59.5036 79.9792 59.1921 79.6776 58.97C79.3759 58.7479 78.9666 58.6369 78.4496 58.6369C78.0982 58.6369 77.8016 58.6866 77.5597 58.786C77.3177 58.8822 77.1321 59.0164 77.0028 59.1887C76.8769 59.3611 76.8139 59.5566 76.8139 59.7754C76.8073 59.9577 76.8454 60.1168 76.9283 60.2527C77.0144 60.3886 77.1321 60.5062 77.2812 60.6056C77.4304 60.7018 77.6027 60.7863 77.7983 60.8592C77.9938 60.9288 78.2027 60.9885 78.4247 61.0382L79.3395 61.2569C79.7836 61.3564 80.1913 61.4889 80.5625 61.6547C80.9337 61.8204 81.2552 62.0242 81.527 62.2662C81.7988 62.5081 82.0092 62.7931 82.1584 63.1213C82.3108 63.4494 82.3887 63.8256 82.392 64.2498C82.3887 64.8729 82.2296 65.4132 81.9148 65.8706C81.6032 66.3246 81.1525 66.6776 80.5625 66.9295C79.9759 67.1781 79.2682 67.3024 78.4396 67.3024C77.6177 67.3024 76.9018 67.1764 76.2919 66.9245C75.6854 66.6726 75.2114 66.2998 74.87 65.8059C74.532 65.3088 74.3546 64.694 74.3381 63.9615H76.4212C76.4444 64.3029 76.5421 64.5879 76.7145 64.8166C76.8902 65.042 77.1238 65.2127 77.4155 65.3287C77.7105 65.4413 78.0436 65.4977 78.4148 65.4977C78.7794 65.4977 79.0959 65.4447 79.3643 65.3386C79.6361 65.2325 79.8466 65.085 79.9957 64.8961C80.1449 64.7072 80.2195 64.4901 80.2195 64.2449C80.2195 64.0162 80.1515 63.8239 80.0156 63.6681C79.883 63.5124 79.6875 63.3798 79.429 63.2704C79.1738 63.161 78.8606 63.0616 78.4893 62.9721L77.3807 62.6937C76.5223 62.4849 75.8445 62.1584 75.3473 61.7143C74.8501 61.2702 74.6032 60.6719 74.6065 59.9196C74.6032 59.3031 74.7673 58.7645 75.0987 58.3038C75.4335 57.8431 75.8925 57.4835 76.4759 57.225C77.0592 56.9664 77.7221 56.8372 78.4645 56.8372C79.2202 56.8372 79.8797 56.9664 80.4432 57.225C81.0099 57.4835 81.4508 57.8431 81.7656 58.3038C82.0805 58.7645 82.2429 59.2981 82.2528 59.9047H80.1896ZM87.2505 67.3074C86.4783 67.3074 85.8104 67.1433 85.247 66.8152C84.6868 66.4837 84.2543 66.023 83.9494 65.4331C83.6445 64.8398 83.492 64.152 83.492 63.3699C83.492 62.581 83.6445 61.8916 83.9494 61.3017C84.2543 60.7084 84.6868 60.2477 85.247 59.9196C85.8104 59.5881 86.4783 59.4224 87.2505 59.4224C88.0228 59.4224 88.689 59.5881 89.2491 59.9196C89.8126 60.2477 90.2467 60.7084 90.5517 61.3017C90.8566 61.8916 91.0091 62.581 91.0091 63.3699C91.0091 64.152 90.8566 64.8398 90.5517 65.4331C90.2467 66.023 89.8126 66.4837 89.2491 66.8152C88.689 67.1433 88.0228 67.3074 87.2505 67.3074ZM87.2605 65.6667C87.6118 65.6667 87.9051 65.5673 88.1404 65.3684C88.3758 65.1663 88.5531 64.8912 88.6724 64.5431C88.795 64.1951 88.8564 63.7991 88.8564 63.3549C88.8564 62.9108 88.795 62.5147 88.6724 62.1667C88.5531 61.8187 88.3758 61.5436 88.1404 61.3414C87.9051 61.1393 87.6118 61.0382 87.2605 61.0382C86.9058 61.0382 86.6075 61.1393 86.3656 61.3414C86.127 61.5436 85.9463 61.8187 85.8237 62.1667C85.7044 62.5147 85.6447 62.9108 85.6447 63.3549C85.6447 63.7991 85.7044 64.1951 85.8237 64.5431C85.9463 64.8912 86.127 65.1663 86.3656 65.3684C86.6075 65.5673 86.9058 65.6667 87.2605 65.6667ZM96.4927 59.5218V61.1127H91.7797V59.5218H96.4927ZM92.8585 67.1582V58.97C92.8585 58.4165 92.9662 57.9574 93.1816 57.5929C93.4004 57.2283 93.6987 56.9548 94.0765 56.7725C94.4544 56.5903 94.8836 56.4991 95.3642 56.4991C95.689 56.4991 95.9856 56.524 96.2541 56.5737C96.5259 56.6234 96.728 56.6681 96.8606 56.7079L96.4828 58.2988C96.3999 58.2723 96.2972 58.2475 96.1745 58.2243C96.0552 58.2011 95.9326 58.1895 95.8066 58.1895C95.4951 58.1895 95.278 58.2624 95.1554 58.4082C95.0327 58.5507 94.9714 58.7512 94.9714 59.0098V67.1582H92.8585ZM101.848 59.5218V61.1127H97.2496V59.5218H101.848ZM98.2937 57.6923H100.412V64.8116C100.412 65.0072 100.441 65.1596 100.501 65.269C100.561 65.3751 100.644 65.4496 100.75 65.4927C100.859 65.5358 100.985 65.5574 101.127 65.5574C101.227 65.5574 101.326 65.5491 101.426 65.5325C101.525 65.5126 101.601 65.4977 101.654 65.4877L101.988 67.0637C101.882 67.0969 101.732 67.135 101.54 67.1781C101.348 67.2245 101.114 67.2527 100.839 67.2626C100.329 67.2825 99.8813 67.2145 99.4968 67.0588C99.1156 66.903 98.819 66.661 98.6069 66.3329C98.3948 66.0048 98.2904 65.5905 98.2937 65.09V57.6923ZM104.734 67.1582L102.656 59.5218H104.799L105.982 64.6525H106.052L107.285 59.5218H109.388L110.641 64.6227H110.705L111.869 59.5218H114.006L111.933 67.1582H109.691L108.379 62.3556H108.284L106.972 67.1582H104.734ZM117.314 67.3024C116.827 67.3024 116.392 67.2179 116.011 67.0488C115.63 66.8765 115.328 66.6229 115.106 66.2882C114.888 65.9501 114.778 65.5292 114.778 65.0254C114.778 64.6011 114.856 64.2449 115.012 63.9565C115.168 63.6681 115.38 63.4361 115.648 63.2605C115.917 63.0848 116.222 62.9522 116.563 62.8627C116.908 62.7733 117.269 62.7103 117.647 62.6738C118.091 62.6274 118.449 62.5843 118.721 62.5446C118.992 62.5015 119.19 62.4385 119.312 62.3556C119.435 62.2728 119.496 62.1502 119.496 61.9877V61.9579C119.496 61.6431 119.397 61.3994 119.198 61.2271C119.002 61.0547 118.724 60.9686 118.363 60.9686C117.982 60.9686 117.678 61.0531 117.453 61.2221C117.228 61.3878 117.078 61.5967 117.006 61.8485L115.047 61.6895C115.146 61.2254 115.342 60.8244 115.633 60.4863C115.925 60.1449 116.301 59.8831 116.762 59.7008C117.226 59.5152 117.763 59.4224 118.373 59.4224C118.797 59.4224 119.203 59.4721 119.591 59.5716C119.982 59.671 120.328 59.8251 120.63 60.0339C120.935 60.2427 121.175 60.5112 121.351 60.8393C121.526 61.1641 121.614 61.5536 121.614 62.0076V67.1582H119.606V66.0993H119.546C119.423 66.3379 119.259 66.5484 119.054 66.7306C118.848 66.9096 118.601 67.0505 118.313 67.1532C118.025 67.2527 117.692 67.3024 117.314 67.3024ZM117.92 65.8407C118.232 65.8407 118.507 65.7794 118.746 65.6568C118.984 65.5308 119.171 65.3618 119.307 65.1497C119.443 64.9376 119.511 64.6973 119.511 64.4288V63.6184C119.445 63.6615 119.354 63.7013 119.238 63.7377C119.125 63.7709 118.997 63.8024 118.855 63.8322C118.712 63.8587 118.57 63.8836 118.427 63.9068C118.285 63.9267 118.156 63.9449 118.04 63.9615C117.791 63.9979 117.574 64.0559 117.388 64.1355C117.203 64.215 117.059 64.3227 116.956 64.4586C116.853 64.5912 116.802 64.7569 116.802 64.9558C116.802 65.2441 116.906 65.4645 117.115 65.617C117.327 65.7662 117.595 65.8407 117.92 65.8407ZM123.257 67.1582V59.5218H125.311V60.8542H125.39C125.529 60.3803 125.763 60.0223 126.091 59.7804C126.419 59.5351 126.797 59.4125 127.225 59.4125C127.331 59.4125 127.445 59.4191 127.568 59.4324C127.69 59.4456 127.798 59.4638 127.891 59.487V61.3663C127.791 61.3365 127.654 61.31 127.478 61.2868C127.302 61.2636 127.142 61.252 126.996 61.252C126.684 61.252 126.406 61.3199 126.161 61.4558C125.919 61.5884 125.727 61.774 125.584 62.0126C125.445 62.2512 125.375 62.5263 125.375 62.8379V67.1582H123.257ZM132.11 67.3074C131.325 67.3074 130.649 67.1483 130.082 66.8301C129.519 66.5086 129.084 66.0545 128.779 65.4679C128.475 64.8779 128.322 64.1802 128.322 63.3748C128.322 62.5893 128.475 61.8999 128.779 61.3066C129.084 60.7134 129.514 60.251 130.067 59.9196C130.624 59.5881 131.277 59.4224 132.026 59.4224C132.53 59.4224 132.999 59.5036 133.433 59.666C133.87 59.8251 134.252 60.0654 134.576 60.3869C134.904 60.7084 135.16 61.1127 135.342 61.6C135.524 62.0839 135.615 62.6506 135.615 63.3002V63.8819H129.167V62.5694H133.622C133.622 62.2645 133.556 61.9944 133.423 61.7591C133.29 61.5237 133.106 61.3398 132.871 61.2072C132.639 61.0713 132.369 61.0034 132.061 61.0034C131.739 61.0034 131.454 61.0779 131.206 61.2271C130.96 61.3729 130.768 61.5701 130.629 61.8187C130.49 62.064 130.418 62.3374 130.415 62.639V63.8869C130.415 64.2647 130.485 64.5912 130.624 64.8663C130.766 65.1414 130.967 65.3535 131.225 65.5027C131.484 65.6518 131.791 65.7264 132.145 65.7264C132.381 65.7264 132.596 65.6932 132.792 65.627C132.987 65.5607 133.154 65.4612 133.294 65.3287C133.433 65.1961 133.539 65.0337 133.612 64.8414L135.571 64.9707C135.471 65.4413 135.267 65.8523 134.959 66.2037C134.654 66.5517 134.26 66.8234 133.776 67.019C133.295 67.2112 132.74 67.3074 132.11 67.3074ZM145.801 59.9047C145.761 59.5036 145.59 59.1921 145.289 58.97C144.987 58.7479 144.578 58.6369 144.061 58.6369C143.71 58.6369 143.413 58.6866 143.171 58.786C142.929 58.8822 142.743 59.0164 142.614 59.1887C142.488 59.3611 142.425 59.5566 142.425 59.7754C142.419 59.9577 142.457 60.1168 142.54 60.2527C142.626 60.3886 142.743 60.5062 142.893 60.6056C143.042 60.7018 143.214 60.7863 143.41 60.8592C143.605 60.9288 143.814 60.9885 144.036 61.0382L144.951 61.2569C145.395 61.3564 145.803 61.4889 146.174 61.6547C146.545 61.8204 146.867 62.0242 147.138 62.2662C147.41 62.5081 147.621 62.7931 147.77 63.1213C147.922 63.4494 148 63.8256 148.003 64.2498C148 64.8729 147.841 65.4132 147.526 65.8706C147.215 66.3246 146.764 66.6776 146.174 66.9295C145.587 67.1781 144.88 67.3024 144.051 67.3024C143.229 67.3024 142.513 67.1764 141.903 66.9245C141.297 66.6726 140.823 66.2998 140.481 65.8059C140.143 65.3088 139.966 64.694 139.949 63.9615H142.032C142.056 64.3029 142.153 64.5879 142.326 64.8166C142.501 65.042 142.735 65.2127 143.027 65.3287C143.322 65.4413 143.655 65.4977 144.026 65.4977C144.391 65.4977 144.707 65.4447 144.976 65.3386C145.247 65.2325 145.458 65.085 145.607 64.8961C145.756 64.7072 145.831 64.4901 145.831 64.2449C145.831 64.0162 145.763 63.8239 145.627 63.6681C145.494 63.5124 145.299 63.3798 145.04 63.2704C144.785 63.161 144.472 63.0616 144.101 62.9721L142.992 62.6937C142.134 62.4849 141.456 62.1584 140.959 61.7143C140.461 61.2702 140.215 60.6719 140.218 59.9196C140.215 59.3031 140.379 58.7645 140.71 58.3038C141.045 57.8431 141.504 57.4835 142.087 57.225C142.671 56.9664 143.333 56.8372 144.076 56.8372C144.831 56.8372 145.491 56.9664 146.055 57.225C146.621 57.4835 147.062 57.8431 147.377 58.3038C147.692 58.7645 147.854 59.2981 147.864 59.9047H145.801ZM152.892 67.3074C152.106 67.3074 151.43 67.1483 150.863 66.8301C150.3 66.5086 149.866 66.0545 149.561 65.4679C149.256 64.8779 149.103 64.1802 149.103 63.3748C149.103 62.5893 149.256 61.8999 149.561 61.3066C149.866 60.7134 150.295 60.251 150.848 59.9196C151.405 59.5881 152.058 59.4224 152.807 59.4224C153.311 59.4224 153.78 59.5036 154.214 59.666C154.652 59.8251 155.033 60.0654 155.358 60.3869C155.686 60.7084 155.941 61.1127 156.123 61.6C156.306 62.0839 156.397 62.6506 156.397 63.3002V63.8819H149.949V62.5694H154.403C154.403 62.2645 154.337 61.9944 154.204 61.7591C154.072 61.5237 153.888 61.3398 153.652 61.2072C153.42 61.0713 153.15 61.0034 152.842 61.0034C152.52 61.0034 152.235 61.0779 151.987 61.2271C151.742 61.3729 151.549 61.5701 151.41 61.8187C151.271 62.064 151.2 62.3374 151.196 62.639V63.8869C151.196 64.2647 151.266 64.5912 151.405 64.8663C151.548 65.1414 151.748 65.3535 152.007 65.5027C152.265 65.6518 152.572 65.7264 152.926 65.7264C153.162 65.7264 153.377 65.6932 153.573 65.627C153.768 65.5607 153.936 65.4612 154.075 65.3287C154.214 65.1961 154.32 65.0337 154.393 64.8414L156.352 64.9707C156.252 65.4413 156.049 65.8523 155.74 66.2037C155.435 66.5517 155.041 66.8234 154.557 67.019C154.077 67.2112 153.521 67.3074 152.892 67.3074ZM157.779 67.1582V59.5218H159.832V60.8542H159.912C160.051 60.3803 160.284 60.0223 160.613 59.7804C160.941 59.5351 161.319 59.4125 161.746 59.4125C161.852 59.4125 161.967 59.4191 162.089 59.4324C162.212 59.4456 162.319 59.4638 162.412 59.487V61.3663C162.313 61.3365 162.175 61.31 162 61.2868C161.824 61.2636 161.663 61.252 161.517 61.252C161.206 61.252 160.927 61.3199 160.682 61.4558C160.44 61.5884 160.248 61.774 160.105 62.0126C159.966 62.2512 159.897 62.5263 159.897 62.8379V67.1582H157.779ZM170.859 59.5218L168.189 67.1582H165.803L163.133 59.5218H165.37L166.956 64.9856H167.036L168.617 59.5218H170.859ZM171.943 67.1582V59.5218H174.061V67.1582H171.943ZM173.007 58.5375C172.692 58.5375 172.422 58.4331 172.196 58.2243C171.974 58.0121 171.863 57.7586 171.863 57.4636C171.863 57.1719 171.974 56.9217 172.196 56.7129C172.422 56.5008 172.692 56.3947 173.007 56.3947C173.322 56.3947 173.59 56.5008 173.812 56.7129C174.038 56.9217 174.15 57.1719 174.15 57.4636C174.15 57.7586 174.038 58.0121 173.812 58.2243C173.59 58.4331 173.322 58.5375 173.007 58.5375ZM179.208 67.3074C178.425 67.3074 177.753 67.1416 177.189 66.8102C176.629 66.4754 176.198 66.0114 175.896 65.4181C175.598 64.8249 175.449 64.1421 175.449 63.3699C175.449 62.5877 175.6 61.9016 175.901 61.3116C176.206 60.7183 176.639 60.256 177.199 59.9245C177.759 59.5898 178.425 59.4224 179.198 59.4224C179.864 59.4224 180.447 59.5434 180.948 59.7853C181.448 60.0273 181.844 60.367 182.136 60.8045C182.427 61.242 182.588 61.7557 182.618 62.3457H180.619C180.563 61.9645 180.414 61.658 180.172 61.426C179.933 61.1906 179.62 61.073 179.232 61.073C178.904 61.073 178.618 61.1625 178.372 61.3414C178.13 61.5171 177.941 61.774 177.806 62.112C177.67 62.4501 177.602 62.8594 177.602 63.34C177.602 63.8272 177.668 64.2415 177.801 64.5829C177.936 64.9243 178.127 65.1845 178.372 65.3635C178.618 65.5424 178.904 65.6319 179.232 65.6319C179.474 65.6319 179.691 65.5822 179.884 65.4828C180.079 65.3833 180.24 65.2392 180.366 65.0502C180.495 64.858 180.58 64.6277 180.619 64.3592H182.618C182.585 64.9425 182.426 65.4563 182.141 65.9004C181.859 66.3412 181.47 66.6859 180.972 66.9345C180.475 67.1831 179.887 67.3074 179.208 67.3074ZM187.454 67.3074C186.669 67.3074 185.993 67.1483 185.426 66.8301C184.862 66.5086 184.428 66.0545 184.123 65.4679C183.818 64.8779 183.666 64.1802 183.666 63.3748C183.666 62.5893 183.818 61.8999 184.123 61.3066C184.428 60.7134 184.857 60.251 185.411 59.9196C185.968 59.5881 186.621 59.4224 187.37 59.4224C187.873 59.4224 188.342 59.5036 188.777 59.666C189.214 59.8251 189.595 60.0654 189.92 60.3869C190.248 60.7084 190.503 61.1127 190.686 61.6C190.868 62.0839 190.959 62.6506 190.959 63.3002V63.8819H184.511V62.5694H188.966C188.966 62.2645 188.899 61.9944 188.767 61.7591C188.634 61.5237 188.45 61.3398 188.215 61.2072C187.983 61.0713 187.713 61.0034 187.404 61.0034C187.083 61.0034 186.798 61.0779 186.549 61.2271C186.304 61.3729 186.112 61.5701 185.973 61.8187C185.833 62.064 185.762 62.3374 185.759 62.639V63.8869C185.759 64.2647 185.828 64.5912 185.968 64.8663C186.11 65.1414 186.311 65.3535 186.569 65.5027C186.828 65.6518 187.134 65.7264 187.489 65.7264C187.724 65.7264 187.94 65.6932 188.135 65.627C188.331 65.5607 188.498 65.4612 188.637 65.3287C188.777 65.1961 188.883 65.0337 188.956 64.8414L190.914 64.9707C190.815 65.4413 190.611 65.8523 190.303 66.2037C189.998 66.5517 189.604 66.8234 189.12 67.019C188.639 67.2112 188.084 67.3074 187.454 67.3074ZM198.695 61.6994L196.756 61.8187C196.723 61.653 196.652 61.5038 196.542 61.3713C196.433 61.2354 196.289 61.1277 196.11 61.0481C195.934 60.9653 195.724 60.9238 195.478 60.9238C195.15 60.9238 194.873 60.9934 194.648 61.1326C194.423 61.2685 194.31 61.4508 194.31 61.6795C194.31 61.8618 194.383 62.0159 194.529 62.1419C194.675 62.2678 194.925 62.3689 195.279 62.4451L196.662 62.7235C197.404 62.876 197.958 63.1213 198.322 63.4593C198.687 63.7974 198.869 64.2415 198.869 64.7917C198.869 65.2922 198.721 65.7314 198.426 66.1092C198.135 66.487 197.734 66.782 197.223 66.9941C196.716 67.2029 196.131 67.3074 195.468 67.3074C194.458 67.3074 193.652 67.0969 193.052 66.676C192.456 66.2517 192.106 65.675 192.003 64.9458L194.086 64.8365C194.149 65.1447 194.302 65.38 194.544 65.5424C194.786 65.7015 195.096 65.7811 195.473 65.7811C195.845 65.7811 196.143 65.7098 196.368 65.5673C196.597 65.4215 196.713 65.2342 196.716 65.0055C196.713 64.8133 196.632 64.6558 196.473 64.5332C196.314 64.4073 196.068 64.3111 195.737 64.2449L194.414 63.9814C193.669 63.8322 193.114 63.5737 192.749 63.2058C192.388 62.8379 192.207 62.3689 192.207 61.7988C192.207 61.3083 192.34 60.8857 192.605 60.5311C192.873 60.1764 193.249 59.903 193.733 59.7108C194.221 59.5185 194.791 59.4224 195.444 59.4224C196.408 59.4224 197.167 59.6262 197.721 60.0339C198.277 60.4416 198.602 60.9967 198.695 61.6994ZM203.483 67.1582V56.9764H207.5C208.272 56.9764 208.93 57.1239 209.473 57.4189C210.017 57.7105 210.431 58.1165 210.716 58.6369C211.005 59.1539 211.149 59.7505 211.149 60.4267C211.149 61.1028 211.003 61.6994 210.711 62.2164C210.42 62.7335 209.997 63.1362 209.444 63.4245C208.893 63.7129 208.227 63.8571 207.445 63.8571H204.885V62.1319H207.097C207.511 62.1319 207.853 62.0607 208.121 61.9181C208.393 61.7723 208.595 61.5718 208.728 61.3166C208.864 61.0581 208.931 60.7614 208.931 60.4267C208.931 60.0886 208.864 59.7936 208.728 59.5417C208.595 59.2865 208.393 59.0893 208.121 58.9501C207.849 58.8076 207.505 58.7363 207.087 58.7363H205.635V67.1582H203.483ZM212.507 67.1582V59.5218H214.561V60.8542H214.64C214.779 60.3803 215.013 60.0223 215.341 59.7804C215.669 59.5351 216.047 59.4125 216.475 59.4125C216.581 59.4125 216.695 59.4191 216.818 59.4324C216.94 59.4456 217.048 59.4638 217.141 59.487V61.3663C217.041 61.3365 216.904 61.31 216.728 61.2868C216.552 61.2636 216.392 61.252 216.246 61.252C215.934 61.252 215.656 61.3199 215.411 61.4558C215.169 61.5884 214.977 61.774 214.834 62.0126C214.695 62.2512 214.625 62.5263 214.625 62.8379V67.1582H212.507ZM218.236 67.1582V59.5218H220.354V67.1582H218.236ZM219.3 58.5375C218.985 58.5375 218.715 58.4331 218.489 58.2243C218.267 58.0121 218.156 57.7586 218.156 57.4636C218.156 57.1719 218.267 56.9217 218.489 56.7129C218.715 56.5008 218.985 56.3947 219.3 56.3947C219.615 56.3947 219.883 56.5008 220.105 56.7129C220.33 56.9217 220.443 57.1719 220.443 57.4636C220.443 57.7586 220.33 58.0121 220.105 58.2243C219.883 58.4331 219.615 58.5375 219.3 58.5375ZM229.17 59.5218L226.5 67.1582H224.113L221.444 59.5218H223.681L225.267 64.9856H225.346L226.927 59.5218H229.17ZM232.226 67.3024C231.739 67.3024 231.304 67.2179 230.923 67.0488C230.542 66.8765 230.241 66.6229 230.018 66.2882C229.8 65.9501 229.69 65.5292 229.69 65.0254C229.69 64.6011 229.768 64.2449 229.924 63.9565C230.08 63.6681 230.292 63.4361 230.56 63.2605C230.829 63.0848 231.134 62.9522 231.475 62.8627C231.82 62.7733 232.181 62.7103 232.559 62.6738C233.003 62.6274 233.361 62.5843 233.633 62.5446C233.905 62.5015 234.102 62.4385 234.224 62.3556C234.347 62.2728 234.408 62.1502 234.408 61.9877V61.9579C234.408 61.6431 234.309 61.3994 234.11 61.2271C233.915 61.0547 233.636 60.9686 233.275 60.9686C232.894 60.9686 232.59 61.0531 232.365 61.2221C232.14 61.3878 231.991 61.5967 231.918 61.8485L229.959 61.6895C230.058 61.2254 230.254 60.8244 230.545 60.4863C230.837 60.1449 231.213 59.8831 231.674 59.7008C232.138 59.5152 232.675 59.4224 233.285 59.4224C233.709 59.4224 234.115 59.4721 234.503 59.5716C234.894 59.671 235.24 59.8251 235.542 60.0339C235.847 60.2427 236.087 60.5112 236.263 60.8393C236.438 61.1641 236.526 61.5536 236.526 62.0076V67.1582H234.518V66.0993H234.458C234.335 66.3379 234.171 66.5484 233.966 66.7306C233.76 66.9096 233.513 67.0505 233.225 67.1532C232.937 67.2527 232.604 67.3024 232.226 67.3024ZM232.832 65.8407C233.144 65.8407 233.419 65.7794 233.658 65.6568C233.896 65.5308 234.084 65.3618 234.219 65.1497C234.355 64.9376 234.423 64.6973 234.423 64.4288V63.6184C234.357 63.6615 234.266 63.7013 234.15 63.7377C234.037 63.7709 233.91 63.8024 233.767 63.8322C233.625 63.8587 233.482 63.8836 233.339 63.9068C233.197 63.9267 233.068 63.9449 232.952 63.9615C232.703 63.9979 232.486 64.0559 232.3 64.1355C232.115 64.215 231.971 64.3227 231.868 64.4586C231.765 64.5912 231.714 64.7569 231.714 64.9558C231.714 65.2441 231.818 65.4645 232.027 65.617C232.239 65.7662 232.508 65.8407 232.832 65.8407ZM242.231 59.5218V61.1127H237.632V59.5218H242.231ZM238.676 57.6923H240.794V64.8116C240.794 65.0072 240.824 65.1596 240.884 65.269C240.944 65.3751 241.026 65.4496 241.132 65.4927C241.242 65.5358 241.368 65.5574 241.51 65.5574C241.61 65.5574 241.709 65.5491 241.809 65.5325C241.908 65.5126 241.984 65.4977 242.037 65.4877L242.37 67.0637C242.264 67.0969 242.115 67.135 241.923 67.1781C241.731 67.2245 241.497 67.2527 241.222 67.2626C240.712 67.2825 240.264 67.2145 239.88 67.0588C239.498 66.903 239.202 66.661 238.99 66.3329C238.778 66.0048 238.673 65.5905 238.676 65.09V57.6923ZM247.009 67.3074C246.223 67.3074 245.547 67.1483 244.98 66.8301C244.417 66.5086 243.983 66.0545 243.678 65.4679C243.373 64.8779 243.221 64.1802 243.221 63.3748C243.221 62.5893 243.373 61.8999 243.678 61.3066C243.983 60.7134 244.412 60.251 244.966 59.9196C245.522 59.5881 246.175 59.4224 246.924 59.4224C247.428 59.4224 247.897 59.5036 248.331 59.666C248.769 59.8251 249.15 60.0654 249.475 60.3869C249.803 60.7084 250.058 61.1127 250.24 61.6C250.423 62.0839 250.514 62.6506 250.514 63.3002V63.8819H244.066V62.5694H248.52C248.52 62.2645 248.454 61.9944 248.321 61.7591C248.189 61.5237 248.005 61.3398 247.77 61.2072C247.538 61.0713 247.267 61.0034 246.959 61.0034C246.638 61.0034 246.353 61.0779 246.104 61.2271C245.859 61.3729 245.667 61.5701 245.527 61.8187C245.388 62.064 245.317 62.3374 245.314 62.639V63.8869C245.314 64.2647 245.383 64.5912 245.522 64.8663C245.665 65.1414 245.865 65.3535 246.124 65.5027C246.382 65.6518 246.689 65.7264 247.044 65.7264C247.279 65.7264 247.494 65.6932 247.69 65.627C247.886 65.5607 248.053 65.4612 248.192 65.3287C248.331 65.1961 248.437 65.0337 248.51 64.8414L250.469 64.9707C250.37 65.4413 250.166 65.8523 249.858 66.2037C249.553 66.5517 249.158 66.8234 248.674 67.019C248.194 67.2112 247.639 67.3074 247.009 67.3074ZM255.176 67.1582V56.9764H257.329V65.3833H261.694V67.1582H255.176ZM263.08 67.1582V59.5218H265.197V67.1582H263.08ZM264.143 58.5375C263.829 58.5375 263.558 58.4331 263.333 58.2243C263.111 58.0121 263 57.7586 263 57.4636C263 57.1719 263.111 56.9217 263.333 56.7129C263.558 56.5008 263.829 56.3947 264.143 56.3947C264.458 56.3947 264.727 56.5008 264.949 56.7129C265.174 56.9217 265.287 57.1719 265.287 57.4636C265.287 57.7586 265.174 58.0121 264.949 58.2243C264.727 58.4331 264.458 58.5375 264.143 58.5375ZM266.894 67.1582V59.5218H268.912V60.8691H269.002C269.161 60.4217 269.426 60.0687 269.797 59.8102C270.169 59.5517 270.613 59.4224 271.13 59.4224C271.653 59.4224 272.099 59.5533 272.467 59.8152C272.835 60.0737 273.08 60.425 273.203 60.8691H273.282C273.438 60.4316 273.72 60.082 274.128 59.8201C274.539 59.555 275.024 59.4224 275.584 59.4224C276.297 59.4224 276.875 59.6494 277.319 60.1035C277.767 60.5543 277.991 61.194 277.991 62.0225V67.1582H275.878V62.4402C275.878 62.0159 275.765 61.6977 275.54 61.4856C275.314 61.2735 275.032 61.1674 274.694 61.1674C274.31 61.1674 274.01 61.2901 273.795 61.5353C273.579 61.7773 273.471 62.0971 273.471 62.4949V67.1582H271.418V62.3954C271.418 62.0209 271.31 61.7226 271.095 61.5005C270.883 61.2785 270.603 61.1674 270.255 61.1674C270.019 61.1674 269.807 61.2271 269.618 61.3464C269.433 61.4624 269.285 61.6265 269.176 61.8386C269.067 62.0474 269.012 62.2927 269.012 62.5744V67.1582H266.894ZM279.664 67.1582V59.5218H281.781V67.1582H279.664ZM280.727 58.5375C280.413 58.5375 280.142 58.4331 279.917 58.2243C279.695 58.0121 279.584 57.7586 279.584 57.4636C279.584 57.1719 279.695 56.9217 279.917 56.7129C280.142 56.5008 280.413 56.3947 280.727 56.3947C281.042 56.3947 281.311 56.5008 281.533 56.7129C281.758 56.9217 281.871 57.1719 281.871 57.4636C281.871 57.7586 281.758 58.0121 281.533 58.2243C281.311 58.4331 281.042 58.5375 280.727 58.5375ZM287.54 59.5218V61.1127H282.941V59.5218H287.54ZM283.985 57.6923H286.103V64.8116C286.103 65.0072 286.133 65.1596 286.192 65.269C286.252 65.3751 286.335 65.4496 286.441 65.4927C286.55 65.5358 286.676 65.5574 286.819 65.5574C286.918 65.5574 287.018 65.5491 287.117 65.5325C287.217 65.5126 287.293 65.4977 287.346 65.4877L287.679 67.0637C287.573 67.0969 287.424 67.135 287.232 67.1781C287.039 67.2245 286.806 67.2527 286.531 67.2626C286.02 67.2825 285.573 67.2145 285.188 67.0588C284.807 66.903 284.51 66.661 284.298 66.3329C284.086 66.0048 283.982 65.5905 283.985 65.09V57.6923ZM292.317 67.3074C291.532 67.3074 290.856 67.1483 290.289 66.8301C289.726 66.5086 289.291 66.0545 288.987 65.4679C288.682 64.8779 288.529 64.1802 288.529 63.3748C288.529 62.5893 288.682 61.8999 288.987 61.3066C289.291 60.7134 289.721 60.251 290.274 59.9196C290.831 59.5881 291.484 59.4224 292.233 59.4224C292.737 59.4224 293.206 59.5036 293.64 59.666C294.077 59.8251 294.459 60.0654 294.783 60.3869C295.112 60.7084 295.367 61.1127 295.549 61.6C295.731 62.0839 295.822 62.6506 295.822 63.3002V63.8819H289.374V62.5694H293.829C293.829 62.2645 293.763 61.9944 293.63 61.7591C293.497 61.5237 293.313 61.3398 293.078 61.2072C292.846 61.0713 292.576 61.0034 292.268 61.0034C291.946 61.0034 291.661 61.0779 291.413 61.2271C291.167 61.3729 290.975 61.5701 290.836 61.8187C290.697 62.064 290.625 62.3374 290.622 62.639V63.8869C290.622 64.2647 290.692 64.5912 290.831 64.8663C290.973 65.1414 291.174 65.3535 291.433 65.5027C291.691 65.6518 291.998 65.7264 292.352 65.7264C292.588 65.7264 292.803 65.6932 292.999 65.627C293.194 65.5607 293.362 65.4612 293.501 65.3287C293.64 65.1961 293.746 65.0337 293.819 64.8414L295.778 64.9707C295.678 65.4413 295.474 65.8523 295.166 66.2037C294.861 66.5517 294.467 66.8234 293.983 67.019C293.502 67.2112 292.947 67.3074 292.317 67.3074ZM300.018 67.2825C299.438 67.2825 298.913 67.1333 298.442 66.835C297.975 66.5334 297.604 66.091 297.329 65.5076C297.057 64.921 296.921 64.2018 296.921 63.35C296.921 62.475 297.062 61.7475 297.344 61.1674C297.625 60.5841 298 60.1483 298.467 59.8599C298.938 59.5682 299.453 59.4224 300.013 59.4224C300.441 59.4224 300.797 59.4953 301.082 59.6412C301.371 59.7837 301.603 59.9627 301.778 60.1781C301.957 60.3902 302.093 60.599 302.186 60.8045H302.251V56.9764H304.364V67.1582H302.276V65.9352H302.186C302.087 66.1473 301.946 66.3578 301.763 66.5666C301.585 66.7721 301.351 66.9428 301.062 67.0787C300.777 67.2145 300.429 67.2825 300.018 67.2825ZM300.69 65.5971C301.031 65.5971 301.319 65.5043 301.555 65.3187C301.793 65.1298 301.976 64.8663 302.102 64.5282C302.231 64.1902 302.295 63.7941 302.295 63.34C302.295 62.8859 302.232 62.4915 302.107 62.1568C301.981 61.822 301.798 61.5635 301.56 61.3812C301.321 61.1989 301.031 61.1078 300.69 61.1078C300.342 61.1078 300.048 61.2022 299.81 61.3912C299.571 61.5801 299.39 61.8419 299.268 62.1767C299.145 62.5114 299.084 62.8992 299.084 63.34C299.084 63.7842 299.145 64.1769 299.268 64.5183C299.394 64.8564 299.574 65.1215 299.81 65.3137C300.048 65.5027 300.342 65.5971 300.69 65.5971Z" fill="#0098EF"/>
<path d="M16.219 37.2335C16.7332 37.2335 17.1146 37.2335 17.496 37.2335C21.8139 37.2335 26.1339 37.2693 30.4518 37.2082C31.5919 37.1913 32.7741 37.0228 33.851 36.6666C35.423 36.1461 36.1543 34.8417 36.0658 33.2232C35.9878 31.7671 35.1027 30.6186 33.5538 30.2055C32.6498 29.9653 31.6889 29.8494 30.7511 29.841C26.2562 29.8052 21.7613 29.8052 17.2685 29.8431C16.3855 29.8515 16.1073 29.5713 16.1432 28.7009C16.2043 27.1584 16.179 25.6116 16.1516 24.067C16.1411 23.4748 16.3687 23.2598 16.9545 23.2641C22.6422 23.2978 28.3319 23.2177 34.0174 23.3757C36.9298 23.4558 39.5976 24.4821 41.5975 26.7685C44.6088 30.2077 44.0546 35.9101 40.4553 38.7128C40.0738 39.0099 39.6777 39.2902 39.1445 39.6864C39.979 40.1415 40.6829 40.5567 41.4162 40.9149C42.0294 41.2142 42.1959 41.6083 41.7639 42.1477C40.7208 43.4501 39.6524 44.7334 38.447 46.2043C36.325 43.2014 33.3684 43.4648 30.4835 43.4774C29.1137 43.4837 27.744 43.4774 26.3742 43.4774C25.7062 43.4774 25.0382 43.5091 24.3744 43.4669C23.6768 43.4227 23.4598 43.7135 23.4703 44.3899C23.5019 46.356 23.4872 48.3222 23.4745 50.2883C23.4703 50.8109 23.5609 51.1818 24.2079 51.1649C27.5733 51.0785 30.9471 51.1249 34.2998 50.891C36.4724 50.7393 38.3775 49.6877 40.0654 48.28C44.2485 44.7861 46.5307 40.464 46.2905 34.8775C46.1387 31.373 46.2863 27.8559 46.2441 24.3451C46.2336 23.5254 46.4569 23.2261 47.3019 23.2493C49.1606 23.302 51.0235 23.2683 52.8843 23.2662C53.3647 23.2662 53.8051 23.2577 53.7967 23.9489C53.7482 28.3005 53.881 32.6627 53.6365 37.0038C53.3289 42.4238 50.7559 46.8576 47.1397 50.8193C42.9188 55.4449 37.8801 57.9273 31.5287 57.7419C26.8273 57.6049 22.1195 57.685 17.4139 57.7419C16.3771 57.7545 16.1305 57.4279 16.1368 56.4312C16.1811 50.4274 16.16 44.4215 16.1643 38.4178C16.1643 38.0743 16.1958 37.7287 16.219 37.2271V37.2335Z" fill="url(#paint1_linear_11598_20496)"/>
<path d="M53.8025 47.0006C53.8025 47.9404 53.8552 48.8866 53.7878 49.8222C53.7224 50.7263 54.0934 50.937 54.9384 50.9328C59.8485 50.8991 64.7585 50.9159 69.6707 50.9159C70.574 50.9159 71.0263 51.376 71.0278 52.2962C71.0278 53.7334 70.9814 55.1748 71.0467 56.6099C71.0868 57.4866 70.7981 57.7458 69.9235 57.7395C64.592 57.7036 59.2605 57.7226 53.929 57.7226C51.8596 57.7226 49.7902 57.7436 47.7209 57.7078C47.2446 57.6994 46.3953 57.5624 46.3637 57.3749C46.2373 56.631 46.0624 55.8597 46.7494 55.1327C48.648 53.1244 50.4667 51.0382 52.2705 48.9435C52.7868 48.3429 53.1535 47.6117 53.5876 46.9395L53.8046 47.0006H53.8025Z" fill="url(#paint2_linear_11598_20496)"/>
<defs>
<linearGradient id="paint0_linear_11598_20496" x1="93.7917" y1="40.4213" x2="345.154" y2="36.6572" gradientUnits="userSpaceOnUse">
<stop stop-color="#574CFF"/>
<stop offset="0.294792" stop-color="#0076FF"/>
<stop offset="0.523958" stop-color="#008CFF"/>
<stop offset="0.857292" stop-color="#0098EF"/>
</linearGradient>
<linearGradient id="paint1_linear_11598_20496" x1="35.0495" y1="29.3629" x2="35.3598" y2="53.1947" gradientUnits="userSpaceOnUse">
<stop stop-color="#574CFF"/>
<stop offset="0.51644" stop-color="#0076FF"/>
<stop offset="0.711458" stop-color="#008CFF"/>
<stop offset="1" stop-color="#0098EF"/>
</linearGradient>
<linearGradient id="paint2_linear_11598_20496" x1="58.7027" y1="48.8535" x2="58.7489" y2="56.3142" gradientUnits="userSpaceOnUse">
<stop stop-color="#574CFF"/>
<stop offset="0.51644" stop-color="#0076FF"/>
<stop offset="0.711458" stop-color="#008CFF"/>
<stop offset="1" stop-color="#0098EF"/>
</linearGradient>
</defs>
</svg>
